# xmcd
#
# Track frame offsets: 
#        150
#        16407
#        30046
#        52265
#        70470
#        91846
#        104615
#        120861
#        134078
#        150811
#        163508
#        178070
#
# Disc length: 2600 seconds
#
# Revision: 0
# Processed by: cddbd v1.5.2PL0 Copyright (c) Steve Scherf et al.
# Submitted via: ExactAudioCopy v1.0b3
#
DISCID=930a260c
DTITLE=Rip Lee Pryor - Nobody But Me
DYEAR=2014
DGENRE=Blues
TTITLE0=Shake Your Boogie
TTITLE1=Nobody But Me
TTITLE2=You Gotta Move
TTITLE3=Wake Up Baby
TTITLE4=Lonesome
TTITLE5=Crazy 'Bout You Baby
TTITLE6=Keep Our Business To Yourself
TTITLE7=I Heard The News
TTITLE8=Stuck On Stupid
TTITLE9=I Got My Eyes On You
TTITLE10=Pitch a Boogie Woogie
TTITLE11=One Way Out
EXTD=
EXTT0=
EXTT1=
EXTT2=
EXTT3=
EXTT4=
EXTT5=
EXTT6=
EXTT7=
EXTT8=
EXTT9=
EXTT10=
EXTT11=
PLAYORDER=
